<?xml version="1.0" encoding="UTF-8" standalone="no"?>
<!DOCTYPE svg PUBLIC "-//W3C//DTD SVG 1.1//EN"
 "http://www.w3.org/Graphics/SVG/1.1/DTD/svg11.dtd">
<!-- Generated by graphviz version 2.40.1 (20161225.0304)
 -->
<!-- Title: %3 Pages: 1 -->
<svg width="746pt" height="476pt"
 viewBox="0.00 0.00 745.98 476.00" xmlns="http://www.w3.org/2000/svg" xmlns:xlink="http://www.w3.org/1999/xlink">
<g id="graph0" class="graph" transform="scale(1 1) rotate(0) translate(4 472)">
<title>%3</title>
<polygon fill="#ffffff" stroke="transparent" points="-4,4 -4,-472 741.9798,-472 741.9798,4 -4,4"/>
<!-- [root] aws_eip.ip (expand) -->
<g id="node1" class="node">
<title>[root] aws_eip.ip (expand)</title>
<polygon fill="none" stroke="#000000" points="420.9798,-252 345.9798,-252 345.9798,-216 420.9798,-216 420.9798,-252"/>
<text text-anchor="middle" x="383.4798" y="-230.3" font-family="Times,serif" font-size="14.00" fill="#000000">aws_eip.ip</text>
</g>
<!-- [root] aws_instance.web (expand) -->
<g id="node2" class="node">
<title>[root] aws_instance.web (expand)</title>
<polygon fill="none" stroke="#000000" points="498.9798,-180 383.9798,-180 383.9798,-144 498.9798,-144 498.9798,-180"/>
<text text-anchor="middle" x="441.4798" y="-158.3" font-family="Times,serif" font-size="14.00" fill="#000000">aws_instance.web</text>
</g>
<!-- [root] aws_eip.ip (expand)&#45;&gt;[root] aws_instance.web (expand) -->
<g id="edge1" class="edge">
<title>[root] aws_eip.ip (expand)&#45;&gt;[root] aws_instance.web (expand)</title>
<path fill="none" stroke="#000000" d="M398.1157,-215.8314C404.7959,-207.5386 412.8367,-197.557 420.1702,-188.4533"/>
<polygon fill="#000000" stroke="#000000" points="423.0992,-190.3965 426.6469,-180.4133 417.6479,-186.0052 423.0992,-190.3965"/>
</g>
<!-- [root] data.aws_ami.ubuntu (expand) -->
<g id="node4" class="node">
<title>[root] data.aws_ami.ubuntu (expand)</title>
<polygon fill="none" stroke="#000000" points="507.9798,-108 374.9798,-108 374.9798,-72 507.9798,-72 507.9798,-108"/>
<text text-anchor="middle" x="441.4798" y="-86.3" font-family="Times,serif" font-size="14.00" fill="#000000">data.aws_ami.ubuntu</text>
</g>
<!-- [root] aws_instance.web (expand)&#45;&gt;[root] data.aws_ami.ubuntu (expand) -->
<g id="edge2" class="edge">
<title>[root] aws_instance.web (expand)&#45;&gt;[root] data.aws_ami.ubuntu (expand)</title>
<path fill="none" stroke="#000000" d="M441.4798,-143.8314C441.4798,-136.131 441.4798,-126.9743 441.4798,-118.4166"/>
<polygon fill="#000000" stroke="#000000" points="444.9799,-118.4132 441.4798,-108.4133 437.9799,-118.4133 444.9799,-118.4132"/>
</g>
<!-- [root] aws_instance.web2 (expand) -->
<g id="node3" class="node">
<title>[root] aws_instance.web2 (expand)</title>
<polygon fill="none" stroke="#000000" points="561.4798,-252 439.4798,-252 439.4798,-216 561.4798,-216 561.4798,-252"/>
<text text-anchor="middle" x="500.4798" y="-230.3" font-family="Times,serif" font-size="14.00" fill="#000000">aws_instance.web2</text>
</g>
<!-- [root] aws_instance.web2 (expand)&#45;&gt;[root] aws_instance.web (expand) -->
<g id="edge3" class="edge">
<title>[root] aws_instance.web2 (expand)&#45;&gt;[root] aws_instance.web (expand)</title>
<path fill="none" stroke="#000000" d="M485.5916,-215.8314C478.7268,-207.454 470.4497,-197.3531 462.9287,-188.1749"/>
<polygon fill="#000000" stroke="#000000" points="465.6139,-185.9297 456.5685,-180.4133 460.1995,-190.3665 465.6139,-185.9297"/>
</g>
<!-- [root] provider[&quot;registry.terraform.io/hashicorp/aws&quot;] -->
<g id="node7" class="node">
<title>[root] provider[&quot;registry.terraform.io/hashicorp/aws&quot;]</title>
<polygon fill="none" stroke="#000000" points="441.4798,-36 188.9431,-18 441.4798,0 694.0165,-18 441.4798,-36"/>
<text text-anchor="middle" x="441.4798" y="-14.3" font-family="Times,serif" font-size="14.00" fill="#000000">provider[&quot;registry.terraform.io/hashicorp/aws&quot;]</text>
</g>
<!-- [root] data.aws_ami.ubuntu (expand)&#45;&gt;[root] provider[&quot;registry.terraform.io/hashicorp/aws&quot;] -->
<g id="edge4" class="edge">
<title>[root] data.aws_ami.ubuntu (expand)&#45;&gt;[root] provider[&quot;registry.terraform.io/hashicorp/aws&quot;]</title>
<path fill="none" stroke="#000000" d="M441.4798,-71.8314C441.4798,-64.131 441.4798,-54.9743 441.4798,-46.4166"/>
<polygon fill="#000000" stroke="#000000" points="444.9799,-46.4132 441.4798,-36.4133 437.9799,-46.4133 444.9799,-46.4132"/>
</g>
<!-- [root] output.eip_dns_name -->
<g id="node5" class="node">
<title>[root] output.eip_dns_name</title>
<polygon fill="none" stroke="#000000" points="600.4798,-324 472.4798,-324 472.4798,-288 606.4798,-288 606.4798,-318 600.4798,-324"/>
<polyline fill="none" stroke="#000000" points="600.4798,-324 600.4798,-318 "/>
<polyline fill="none" stroke="#000000" points="606.4798,-318 600.4798,-318 "/>
<text text-anchor="middle" x="539.4798" y="-302.3" font-family="Times,serif" font-size="14.00" fill="#000000">output.eip_dns_name</text>
</g>
<!-- [root] output.eip_dns_name&#45;&gt;[root] aws_eip.ip (expand) -->
<g id="edge7" class="edge">
<title>[root] output.eip_dns_name&#45;&gt;[root] aws_eip.ip (expand)</title>
<path fill="none" stroke="#000000" d="M500.1144,-287.8314C478.9482,-278.0623 452.704,-265.9496 430.4734,-255.6893"/>
<polygon fill="#000000" stroke="#000000" points="431.7645,-252.4305 421.2182,-251.4177 428.8311,-258.7862 431.7645,-252.4305"/>
</g>
<!-- [root] output.ip_address -->
<g id="node6" class="node">
<title>[root] output.ip_address</title>
<polygon fill="none" stroke="#000000" points="731.9798,-324 624.9798,-324 624.9798,-288 737.9798,-288 737.9798,-318 731.9798,-324"/>
<polyline fill="none" stroke="#000000" points="731.9798,-324 731.9798,-318 "/>
<polyline fill="none" stroke="#000000" points="737.9798,-318 731.9798,-318 "/>
<text text-anchor="middle" x="681.4798" y="-302.3" font-family="Times,serif" font-size="14.00" fill="#000000">output.ip_address</text>
</g>
<!-- [root] output.ip_address&#45;&gt;[root] aws_instance.web2 (expand) -->
<g id="edge8" class="edge">
<title>[root] output.ip_address&#45;&gt;[root] aws_instance.web2 (expand)</title>
<path fill="none" stroke="#000000" d="M635.8059,-287.8314C611.383,-278.1162 581.1332,-266.0831 555.4315,-255.8592"/>
<polygon fill="#000000" stroke="#000000" points="556.4108,-252.4821 545.8253,-252.038 553.8235,-258.9864 556.4108,-252.4821"/>
</g>
<!-- [root] meta.count&#45;boundary (EachMode fixup) -->
<g id="node8" class="node">
<title>[root] meta.count&#45;boundary (EachMode fixup)</title>
<ellipse fill="none" stroke="#000000" cx="539.4798" cy="-378" rx="176.5689" ry="18"/>
<text text-anchor="middle" x="539.4798" y="-374.3" font-family="Times,serif" font-size="14.00" fill="#000000">[root] meta.count&#45;boundary (EachMode fixup)</text>
</g>
<!-- [root] meta.count&#45;boundary (EachMode fixup)&#45;&gt;[root] output.eip_dns_name -->
<g id="edge5" class="edge">
<title>[root] meta.count&#45;boundary (EachMode fixup)&#45;&gt;[root] output.eip_dns_name</title>
<path fill="none" stroke="#000000" d="M539.4798,-359.8314C539.4798,-352.131 539.4798,-342.9743 539.4798,-334.4166"/>
<polygon fill="#000000" stroke="#000000" points="542.9799,-334.4132 539.4798,-324.4133 535.9799,-334.4133 542.9799,-334.4132"/>
</g>
<!-- [root] meta.count&#45;boundary (EachMode fixup)&#45;&gt;[root] output.ip_address -->
<g id="edge6" class="edge">
<title>[root] meta.count&#45;boundary (EachMode fixup)&#45;&gt;[root] output.ip_address</title>
<path fill="none" stroke="#000000" d="M574.5809,-360.2022C593.3835,-350.6686 616.7442,-338.8237 636.8275,-328.6406"/>
<polygon fill="#000000" stroke="#000000" points="638.46,-331.7371 645.7962,-324.0931 635.2943,-325.4938 638.46,-331.7371"/>
</g>
<!-- [root] provider[&quot;registry.terraform.io/hashicorp/aws&quot;] (close) -->
<g id="node9" class="node">
<title>[root] provider[&quot;registry.terraform.io/hashicorp/aws&quot;] (close)</title>
<ellipse fill="none" stroke="#000000" cx="227.4798" cy="-306" rx="227.4596" ry="18"/>
<text text-anchor="middle" x="227.4798" y="-302.3" font-family="Times,serif" font-size="14.00" fill="#000000">[root] provider[&quot;registry.terraform.io/hashicorp/aws&quot;] (close)</text>
</g>
<!-- [root] provider[&quot;registry.terraform.io/hashicorp/aws&quot;] (close)&#45;&gt;[root] aws_eip.ip (expand) -->
<g id="edge9" class="edge">
<title>[root] provider[&quot;registry.terraform.io/hashicorp/aws&quot;] (close)&#45;&gt;[root] aws_eip.ip (expand)</title>
<path fill="none" stroke="#000000" d="M266.0416,-288.2022C287.3577,-278.3641 314.0064,-266.0647 336.528,-255.6701"/>
<polygon fill="#000000" stroke="#000000" points="338.287,-258.7131 345.8999,-251.3446 335.3536,-252.3574 338.287,-258.7131"/>
</g>
<!-- [root] provider[&quot;registry.terraform.io/hashicorp/aws&quot;] (close)&#45;&gt;[root] aws_instance.web2 (expand) -->
<g id="edge10" class="edge">
<title>[root] provider[&quot;registry.terraform.io/hashicorp/aws&quot;] (close)&#45;&gt;[root] aws_instance.web2 (expand)</title>
<path fill="none" stroke="#000000" d="M292.8701,-288.7542C334.0522,-277.893 387.2153,-263.872 429.4337,-252.7374"/>
<polygon fill="#000000" stroke="#000000" points="430.5879,-256.0528 439.3647,-250.1183 428.8027,-249.2842 430.5879,-256.0528"/>
</g>
<!-- [root] root -->
<g id="node10" class="node">
<title>[root] root</title>
<ellipse fill="none" stroke="#000000" cx="383.4798" cy="-450" rx="47.3916" ry="18"/>
<text text-anchor="middle" x="383.4798" y="-446.3" font-family="Times,serif" font-size="14.00" fill="#000000">[root] root</text>
</g>
<!-- [root] root&#45;&gt;[root] meta.count&#45;boundary (EachMode fixup) -->
<g id="edge11" class="edge">
<title>[root] root&#45;&gt;[root] meta.count&#45;boundary (EachMode fixup)</title>
<path fill="none" stroke="#000000" d="M413.9285,-435.9468C436.1984,-425.6683 466.8311,-411.5302 492.2632,-399.7923"/>
<polygon fill="#000000" stroke="#000000" points="493.7596,-402.9565 501.3725,-395.588 490.8262,-396.6008 493.7596,-402.9565"/>
</g>
<!-- [root] root&#45;&gt;[root] provider[&quot;registry.terraform.io/hashicorp/aws&quot;] (close) -->
<g id="edge12" class="edge">
<title>[root] root&#45;&gt;[root] provider[&quot;registry.terraform.io/hashicorp/aws&quot;] (close)</title>
<path fill="none" stroke="#000000" d="M365.2793,-433.1995C338.0127,-408.0304 286.3808,-360.3701 254.6434,-331.074"/>
<polygon fill="#000000" stroke="#000000" points="256.7522,-328.2574 247.0301,-324.0464 252.0042,-333.4011 256.7522,-328.2574"/>
</g>
</g>
</svg>
